<svg width="214" height="22" viewBox="0 0 214 22" fill="none" xmlns="http://www.w3.org/2000/svg">
<path d="M10.7885 0.975033V2.39142L10.0075 2.44437C9.33684 2.48849 8.87354 2.66499 8.61762 2.97386C8.37052 3.2739 8.24697 4.01078 8.24697 5.18448V16.3038C8.24697 17.4687 8.37052 18.2055 8.61762 18.5144C8.86471 18.8145 9.32802 18.9865 10.0075 19.0307L10.7885 19.0968V20.5H0.794393V19.0968L1.6151 19.0307C2.27697 18.9865 2.72703 18.8189 2.9653 18.5276C3.2124 18.2276 3.33595 17.4863 3.33595 16.3038V5.18448C3.33595 3.99313 3.2124 3.25184 2.9653 2.96062C2.72703 2.66058 2.27255 2.48849 1.60187 2.44437L0.794393 2.39142V0.975033H10.7885ZM29.9164 5.85958C29.9164 4.48291 29.7222 3.56954 29.3339 3.11947C28.9456 2.66058 28.1999 2.41348 27.0968 2.37818V0.975033H34.2847V2.39142C33.2522 2.42672 32.5506 2.67382 32.18 3.13271C31.8093 3.5916 31.624 4.50056 31.624 5.85958V20.5H29.3737L17.0895 6.19052V15.6154C17.0895 16.9921 17.2836 17.9099 17.6719 18.3688C18.069 18.8189 18.8236 19.0616 19.9355 19.0968V20.5H12.5888V19.0968C13.6831 19.0616 14.42 18.8189 14.7994 18.3688C15.1877 17.9099 15.3819 16.9921 15.3819 15.6154V4.15198C14.9583 3.60484 14.517 3.19007 14.0581 2.90767C13.5992 2.62528 13.083 2.44878 12.5094 2.37818V0.975033H18.8236L29.9164 14.0535V5.85958ZM55.279 1.00151L55.4113 8.73207L54.1141 8.67912C53.3993 6.32289 52.6227 4.67264 51.7843 3.72838C50.946 2.78413 49.8782 2.312 48.5809 2.312C48.3073 2.312 48.1353 2.36495 48.0647 2.47084C47.9941 2.57674 47.9588 2.89444 47.9588 3.42393V17.1113C47.9588 17.7643 48.0955 18.2408 48.3691 18.5409C48.6427 18.8409 49.0928 19.0042 49.7193 19.0307L50.9901 19.0968V20.5H40.0694V19.0968L41.3269 19.0307C41.9535 19.0042 42.3991 18.8453 42.6639 18.5541C42.9374 18.2541 43.0742 17.7731 43.0742 17.1113V3.4504C43.0742 2.88561 43.0389 2.55468 42.9683 2.45761C42.9065 2.36053 42.7345 2.312 42.4521 2.312C41.1548 2.312 40.087 2.78413 39.2486 3.72838C38.4191 4.67264 37.6425 6.32289 36.9189 8.67912L35.6216 8.73207L35.7805 1.00151H55.279ZM74.8569 0.975033L74.9628 7.54072H73.5332C73.2596 5.77575 72.6154 4.47408 71.6005 3.63572C70.5857 2.78854 69.1516 2.36495 67.2984 2.36495C66.2571 2.36495 65.5555 2.51938 65.1937 2.82825C64.8407 3.12829 64.6642 3.91371 64.6642 5.18448V9.49983H65.882C66.941 9.49983 67.7397 9.20861 68.278 8.62617C68.8163 8.04373 69.1208 7.14801 69.1914 5.93901H70.5945V14.6756L69.1914 14.6624C69.1031 13.3651 68.7898 12.412 68.2515 11.8031C67.722 11.1854 66.9322 10.8765 65.882 10.8765H64.6642V16.3038C64.6642 17.6363 64.8098 18.4526 65.101 18.7527C65.4011 19.0527 66.0144 19.2027 66.941 19.2027C68.9178 19.2027 70.4224 18.7747 71.4549 17.9187C72.4963 17.0539 73.2861 15.5757 73.8244 13.4842H75.2408L75.0158 20.5H57.2116V19.0968L58.0323 19.0307C58.6942 18.9865 59.1443 18.8189 59.3825 18.5276C59.6296 18.2276 59.7532 17.4863 59.7532 16.3038V5.18448C59.7532 3.99313 59.6296 3.25184 59.3825 2.96062C59.1443 2.66058 58.6898 2.48849 58.0191 2.44437L57.2116 2.39142V0.975033H74.8569ZM85.5791 16.3038C85.5791 17.4687 85.7026 18.2055 85.9497 18.5144C86.1968 18.8145 86.6601 18.9865 87.3396 19.0307L88.1206 19.0968V20.5H78.1265V19.0968L78.9472 19.0307C79.6091 18.9865 80.0591 18.8189 80.2974 18.5276C80.5445 18.2276 80.6681 17.4863 80.6681 16.3038V5.18448C80.6681 3.99313 80.5445 3.25184 80.2974 2.96062C80.0591 2.66058 79.6047 2.48849 78.934 2.44437L78.1265 2.39142V0.975033H86.7969C90.4239 0.975033 92.9699 1.33685 94.4348 2.06049C95.9086 2.7753 96.6454 3.97989 96.6454 5.67426C96.6454 7.02446 96.0718 8.07462 94.9246 8.82473C93.7774 9.56602 92.008 10.0426 89.6164 10.2544C91.0549 10.5191 92.1845 10.9427 93.0052 11.5251C93.8347 12.1076 94.4392 12.9106 94.8187 13.9343C94.9864 14.3667 95.1143 14.9095 95.2026 15.5625C95.2908 16.2155 95.3526 16.6127 95.3879 16.7539C95.5203 17.2127 95.6571 17.5172 95.7983 17.6672C95.9394 17.8172 96.1292 17.8923 96.3675 17.8923C96.8263 17.8923 97.1573 17.6187 97.3602 17.0715C97.572 16.5156 97.6868 15.5801 97.7044 14.2652H98.9884C99.0061 14.38 99.0149 14.5035 99.0149 14.6359C99.0237 14.7683 99.0281 14.9712 99.0281 15.2448C99.0281 17.0892 98.6399 18.5056 97.8633 19.494C97.0955 20.4735 95.9836 20.9633 94.5275 20.9633C93.9097 20.9633 93.3317 20.8442 92.7934 20.6059C92.2639 20.3676 91.8271 20.0323 91.4829 19.5999C90.8475 18.8056 90.4019 17.0009 90.1459 14.1858C90.1283 13.9564 90.1151 13.7843 90.1062 13.6696C89.9915 12.5047 89.6341 11.7149 89.034 11.3001C88.4339 10.8765 87.344 10.6647 85.7644 10.6647H85.5791V16.3038ZM85.5791 5.26391V9.43365C85.7379 9.44247 85.9056 9.4513 86.0821 9.46012C86.2674 9.46012 86.5322 9.46012 86.8763 9.46012C88.5884 9.46012 89.8018 9.18214 90.5166 8.62617C91.2402 8.07021 91.602 7.13919 91.602 5.83311C91.602 4.73883 91.2843 3.88723 90.649 3.27832C90.0224 2.6694 89.1443 2.36495 88.0147 2.36495C87.0793 2.36495 86.4395 2.52379 86.0953 2.84149C85.7512 3.15036 85.5791 3.95783 85.5791 5.26391ZM117.494 5.85958C117.494 4.48291 117.3 3.56954 116.912 3.11947C116.523 2.66058 115.778 2.41348 114.675 2.37818V0.975033H121.862V2.39142C120.83 2.42672 120.128 2.67382 119.758 3.13271C119.387 3.5916 119.202 4.50056 119.202 5.85958V20.5H116.951L104.667 6.19052V15.6154C104.667 16.9921 104.861 17.9099 105.25 18.3688C105.647 18.8189 106.401 19.0616 107.513 19.0968V20.5H100.167V19.0968C101.261 19.0616 101.998 18.8189 102.377 18.3688C102.765 17.9099 102.96 16.9921 102.96 15.6154V4.15198C102.536 3.60484 102.095 3.19007 101.636 2.90767C101.177 2.62528 100.661 2.44878 100.087 2.37818V0.975033H106.401L117.494 14.0535V5.85958ZM133.869 21.0163H132.426L132.187 13.0209H133.591C134.376 15.1654 135.378 16.7803 136.595 17.8658C137.813 18.9512 139.234 19.494 140.858 19.494C141.837 19.494 142.627 19.2248 143.227 18.6865C143.836 18.1482 144.141 17.4422 144.141 16.5685C144.141 15.8449 143.902 15.2316 143.426 14.7286C142.949 14.2255 142.137 13.7446 140.99 13.2857C140.637 13.1445 140.108 12.9371 139.402 12.6635C137.593 11.9576 136.309 11.3795 135.55 10.9295C134.526 10.3294 133.772 9.65427 133.286 8.90416C132.801 8.15404 132.558 7.29362 132.558 6.32289C132.558 4.63734 133.163 3.25184 134.372 2.16639C135.581 1.07211 137.129 0.524966 139.018 0.524966C140.068 0.524966 141.171 0.719112 142.327 1.10741C143.492 1.4957 144.141 1.68985 144.273 1.68985C144.494 1.68985 144.688 1.6016 144.856 1.4251C145.023 1.2486 145.191 0.957383 145.359 0.55144H146.629L146.709 6.91857H145.438C144.829 5.29479 144.013 4.08138 142.989 3.27832C141.974 2.46643 140.739 2.06049 139.283 2.06049C138.268 2.06049 137.456 2.29435 136.847 2.76206C136.247 3.22096 135.947 3.82987 135.947 4.58881C135.947 5.72721 137.482 6.87003 140.553 8.01726L140.659 8.05697C142.292 8.65706 143.452 9.12919 144.141 9.47336C144.838 9.8087 145.398 10.1485 145.822 10.4926C146.537 11.1015 147.062 11.7678 147.397 12.4915C147.732 13.2063 147.9 14.0226 147.9 14.9403C147.9 16.8112 147.278 18.2938 146.034 19.3881C144.798 20.4735 143.117 21.0163 140.99 21.0163C140.302 21.0163 139.605 20.9324 138.899 20.7647C138.202 20.6059 137.425 20.3456 136.569 19.9837C136.428 19.922 136.238 19.8381 136 19.7322C135.47 19.4851 135.117 19.3616 134.941 19.3616C134.685 19.3616 134.464 19.5028 134.279 19.7852C134.094 20.0676 133.957 20.4779 133.869 21.0163ZM162.342 12.5312V17.1113C162.342 17.7643 162.492 18.2364 162.792 18.5276C163.101 18.8189 163.617 18.9865 164.341 19.0307L165.281 19.0968V20.5H154.506V19.0968L155.445 19.0307C156.169 18.9865 156.681 18.8189 156.981 18.5276C157.29 18.2364 157.444 17.7643 157.444 17.1113V12.5312L152.507 4.39025C152.092 3.71073 151.629 3.20772 151.117 2.8812C150.605 2.55468 150.018 2.39142 149.356 2.39142H149.091V0.975033H160.37L160.237 2.39142H159.575C158.869 2.39142 158.349 2.47967 158.013 2.65617C157.687 2.82384 157.524 3.09741 157.524 3.47688C157.524 3.65337 157.577 3.87399 157.682 4.13874C157.797 4.39466 157.987 4.74324 158.252 5.18448L161.614 10.7706L164.791 6.04491C165.038 5.66544 165.237 5.28156 165.387 4.89326C165.545 4.49615 165.625 4.17845 165.625 3.94018C165.625 3.44599 165.391 3.06652 164.923 2.80178C164.456 2.52821 163.785 2.39142 162.911 2.39142V0.975033H170.695V2.39142C170.05 2.46202 169.49 2.6694 169.014 3.01357C168.546 3.35774 168.003 3.99754 167.385 4.93298L162.342 12.5312ZM188.922 5.85958C188.922 4.48291 188.728 3.56954 188.34 3.11947C187.952 2.66058 187.206 2.41348 186.103 2.37818V0.975033H193.291V2.39142C192.258 2.42672 191.557 2.67382 191.186 3.13271C190.815 3.5916 190.63 4.50056 190.63 5.85958V20.5H188.38L176.096 6.19052V15.6154C176.096 16.9921 176.29 17.9099 176.678 18.3688C177.075 18.8189 177.83 19.0616 178.942 19.0968V20.5H171.595V19.0968C172.689 19.0616 173.426 18.8189 173.805 18.3688C174.194 17.9099 174.388 16.9921 174.388 15.6154V4.15198C173.964 3.60484 173.523 3.19007 173.064 2.90767C172.605 2.62528 172.089 2.44878 171.515 2.37818V0.975033H177.83L188.922 14.0535V5.85958ZM213.61 13.8549C213.177 16.1758 212.233 17.954 210.777 19.1895C209.321 20.425 207.437 21.0427 205.125 21.0427C203.792 21.0427 202.552 20.8221 201.405 20.3809C200.267 19.9308 199.239 19.2645 198.321 18.382C197.35 17.4554 196.618 16.3523 196.123 15.0727C195.629 13.7931 195.382 12.3591 195.382 10.7706C195.382 9.24391 195.643 7.84959 196.163 6.58763C196.684 5.31686 197.456 4.1961 198.48 3.22537C199.398 2.35171 200.426 1.68985 201.564 1.23978C202.702 0.780886 203.907 0.55144 205.178 0.55144C205.707 0.55144 206.224 0.599977 206.727 0.69705C207.238 0.785299 207.719 0.917671 208.169 1.09417C208.311 1.15594 208.514 1.24419 208.778 1.35891C209.758 1.77368 210.402 1.98107 210.711 1.98107C211.011 1.98107 211.245 1.86634 211.413 1.6369C211.589 1.40745 211.677 1.08976 211.677 0.683813H213.094L213.411 8.78502H212.035C211.426 6.46409 210.658 4.79178 209.731 3.7681C208.814 2.74441 207.622 2.23257 206.157 2.23257C204.384 2.23257 203.042 2.95621 202.133 4.40348C201.233 5.85076 200.783 7.99078 200.783 10.8236C200.783 13.7181 201.198 15.8714 202.027 17.2833C202.866 18.6865 204.141 19.3881 205.853 19.3881C207.291 19.3881 208.536 18.9071 209.586 17.9452C210.645 16.9745 211.408 15.611 211.876 13.8549H213.61Z" fill="black"/>
</svg>
